# xmcd
#
# Track frame offsets: 
#        150
#        12880
#        18805
#        34700
#        44955
#        63145
#        75820
#        92910
#        108142
#        115852
#        123040
#        137517
#        147455
#        165725
#        175462
#        186672
#
# Disc length: 2585 seconds
#
# Revision: 0
# Processed by: cddbd v1.5.2PL0 Copyright (c) Steve Scherf et al.
# Submitted via: ExactAudioCopy v0.95b4
#
DISCID=ce0a1710
DTITLE=Roosevelt Holts, Herlin Holts, L V Conerly - Franklinton Muscat
DTITLE=el society
DYEAR=1969
DGENRE=Blues
TTITLE0=Louise Blues
TTITLE1=Corina
TTITLE2=Coal-black Woman
TTITLE3=Big Road Blues
TTITLE4=Roll and Tumble Blues
TTITLE5=Maggie Campbell Blues
TTITLE6=Up the Country Blues
TTITLE7=Rocks in my Pillow
TTITLE8=Two Wings
TTITLE9=He Satisifed Me
TTITLE10=Burke Holmes' Piece
TTITLE11=Red River Blues
TTITLE12=Don't the Sun Look Lonesome?
TTITLE13=Key to the Highway
TTITLE14=Meet me in the Bottom
TTITLE15=I'm gonna build right on that shore
EXTD=
EXTT0=
EXTT1=
EXTT2=
EXTT3=
EXTT4=
EXTT5=
EXTT6=
EXTT7=
EXTT8=
EXTT9=
EXTT10=
EXTT11=
EXTT12=
EXTT13=
EXTT14=
EXTT15=
PLAYORDER=
